<svg xmlns="http://www.w3.org/2000/svg" xmlns:xlink="http://www.w3.org/1999/xlink" width="200" zoomAndPan="magnify" viewBox="0 0 150 32.249999" height="43" preserveAspectRatio="xMidYMid meet" version="1.0"><defs><clipPath id="id1"><path d="M 1.703125 0 L 17 0 L 17 15 L 1.703125 15 Z M 1.703125 0 " clip-rule="nonzero"/></clipPath><clipPath id="id2"><path d="M 1.703125 16 L 17 16 L 17 31.515625 L 1.703125 31.515625 Z M 1.703125 16 " clip-rule="nonzero"/></clipPath><clipPath id="id3"><path d="M 17 16 L 33 16 L 33 31.515625 L 17 31.515625 Z M 17 16 " clip-rule="nonzero"/></clipPath></defs><path fill="#706d6e" d="M 147.808594 14.253906 L 147.808594 11.660156 L 144.609375 11.660156 L 144.609375 7.625 L 144.5 7.65625 L 141.492188 8.582031 L 141.433594 8.601562 L 141.433594 11.660156 L 136.6875 11.660156 L 136.6875 9.957031 C 136.6875 9.164062 136.859375 8.554688 137.210938 8.152344 C 137.554688 7.75 138.046875 7.546875 138.675781 7.546875 C 139.128906 7.546875 139.597656 7.65625 140.070312 7.867188 L 140.1875 7.917969 L 140.1875 5.1875 L 140.128906 5.164062 C 139.691406 5.007812 139.089844 4.925781 138.351562 4.925781 C 137.417969 4.925781 136.566406 5.132812 135.828125 5.535156 C 135.085938 5.941406 134.507812 6.523438 134.097656 7.257812 C 133.691406 7.996094 133.484375 8.847656 133.484375 9.785156 L 133.484375 11.660156 L 131.253906 11.660156 L 131.253906 14.253906 L 133.484375 14.253906 L 133.484375 25.191406 L 136.6875 25.191406 L 136.6875 14.253906 L 141.433594 14.253906 L 141.433594 21.203125 C 141.433594 24.066406 142.773438 25.515625 145.417969 25.515625 C 145.851562 25.515625 146.308594 25.464844 146.777344 25.367188 C 147.253906 25.261719 147.574219 25.160156 147.769531 25.050781 L 147.808594 25.023438 L 147.808594 22.40625 L 147.679688 22.492188 C 147.503906 22.609375 147.289062 22.703125 147.035156 22.773438 C 146.78125 22.847656 146.566406 22.882812 146.40625 22.882812 C 145.78125 22.882812 145.324219 22.714844 145.039062 22.382812 C 144.75 22.046875 144.609375 21.460938 144.609375 20.644531 L 144.609375 14.253906 Z M 124.109375 22.882812 C 122.945312 22.882812 122.027344 22.496094 121.382812 21.730469 C 120.734375 20.960938 120.40625 19.867188 120.40625 18.476562 C 120.40625 17.042969 120.734375 15.917969 121.382812 15.136719 C 122.03125 14.363281 122.9375 13.96875 124.082031 13.96875 C 125.191406 13.96875 126.074219 14.34375 126.707031 15.085938 C 127.34375 15.832031 127.664062 16.949219 127.664062 18.398438 C 127.664062 19.867188 127.363281 20.996094 126.765625 21.753906 C 126.171875 22.5 125.277344 22.882812 124.109375 22.882812 Z M 124.25 11.332031 C 122.035156 11.332031 120.273438 11.988281 119.019531 13.277344 C 117.765625 14.566406 117.128906 16.351562 117.128906 18.582031 C 117.128906 20.699219 117.75 22.402344 118.972656 23.644531 C 120.199219 24.886719 121.863281 25.515625 123.925781 25.515625 C 126.074219 25.515625 127.800781 24.855469 129.054688 23.546875 C 130.308594 22.242188 130.945312 20.472656 130.945312 18.292969 C 130.945312 16.144531 130.347656 14.425781 129.167969 13.191406 C 127.992188 11.957031 126.335938 11.332031 124.25 11.332031 Z M 111.964844 11.332031 C 110.460938 11.332031 109.210938 11.722656 108.261719 12.488281 C 107.300781 13.257812 106.8125 14.265625 106.8125 15.488281 C 106.8125 16.125 106.917969 16.6875 107.125 17.167969 C 107.335938 17.648438 107.65625 18.070312 108.082031 18.425781 C 108.507812 18.777344 109.164062 19.144531 110.027344 19.519531 C 110.757812 19.824219 111.300781 20.078125 111.644531 20.28125 C 111.984375 20.476562 112.222656 20.675781 112.359375 20.867188 C 112.492188 21.058594 112.558594 21.316406 112.558594 21.636719 C 112.558594 22.542969 111.878906 22.988281 110.488281 22.988281 C 109.972656 22.988281 109.386719 22.878906 108.738281 22.664062 C 108.09375 22.449219 107.492188 22.144531 106.949219 21.75 L 106.8125 21.652344 L 106.8125 24.753906 L 106.863281 24.777344 C 107.316406 24.988281 107.886719 25.167969 108.5625 25.304688 C 109.230469 25.445312 109.839844 25.515625 110.375 25.515625 C 112.007812 25.515625 113.328125 25.128906 114.285156 24.355469 C 115.253906 23.582031 115.746094 22.546875 115.746094 21.285156 C 115.746094 20.371094 115.480469 19.589844 114.960938 18.957031 C 114.445312 18.332031 113.546875 17.757812 112.296875 17.25 C 111.300781 16.847656 110.660156 16.515625 110.398438 16.257812 C 110.144531 16.007812 110.015625 15.660156 110.015625 15.214844 C 110.015625 14.820312 110.171875 14.507812 110.5 14.25 C 110.828125 13.992188 111.289062 13.863281 111.863281 13.863281 C 112.394531 13.863281 112.945312 13.949219 113.484375 14.113281 C 114.027344 14.28125 114.503906 14.503906 114.902344 14.777344 L 115.03125 14.867188 L 115.03125 11.921875 L 114.984375 11.902344 C 114.617188 11.742188 114.132812 11.605469 113.542969 11.496094 C 112.957031 11.386719 112.429688 11.332031 111.964844 11.332031 Z M 98.46875 22.882812 C 97.308594 22.882812 96.394531 22.496094 95.75 21.730469 C 95.097656 20.960938 94.769531 19.867188 94.769531 18.476562 C 94.769531 17.042969 95.097656 15.917969 95.75 15.136719 C 96.394531 14.363281 97.300781 13.96875 98.445312 13.96875 C 99.554688 13.96875 100.4375 14.34375 101.070312 15.085938 C 101.707031 15.832031 102.03125 16.949219 102.03125 18.398438 C 102.03125 19.867188 101.726562 20.996094 101.128906 21.753906 C 100.53125 22.5 99.636719 22.882812 98.46875 22.882812 Z M 98.613281 11.332031 C 96.394531 11.332031 94.636719 11.988281 93.382812 13.277344 C 92.128906 14.566406 91.488281 16.351562 91.488281 18.582031 C 91.488281 20.699219 92.109375 22.402344 93.335938 23.644531 C 94.558594 24.886719 96.226562 25.515625 98.289062 25.515625 C 100.4375 25.515625 102.160156 24.855469 103.417969 23.546875 C 104.671875 22.242188 105.308594 20.472656 105.308594 18.292969 C 105.308594 16.144531 104.710938 14.425781 103.535156 13.191406 C 102.355469 11.957031 100.703125 11.332031 98.613281 11.332031 Z M 86.632812 14.003906 L 86.632812 11.660156 L 83.46875 11.660156 L 83.46875 25.191406 L 86.632812 25.191406 L 86.632812 18.269531 C 86.632812 17.09375 86.898438 16.125 87.417969 15.394531 C 87.9375 14.671875 88.625 14.308594 89.464844 14.308594 C 89.75 14.308594 90.070312 14.355469 90.414062 14.449219 C 90.757812 14.542969 91.003906 14.640625 91.152344 14.75 L 91.285156 14.84375 L 91.285156 11.636719 L 91.234375 11.613281 C 90.941406 11.488281 90.523438 11.425781 89.996094 11.425781 C 89.199219 11.425781 88.492188 11.679688 87.882812 12.1875 C 87.347656 12.632812 86.960938 13.242188 86.667969 14.003906 Z M 77.808594 11.332031 C 76.355469 11.332031 75.0625 11.648438 73.960938 12.265625 C 72.859375 12.882812 72.007812 13.765625 71.429688 14.890625 C 70.847656 16.007812 70.558594 17.316406 70.558594 18.777344 C 70.558594 20.054688 70.839844 21.230469 71.402344 22.261719 C 71.964844 23.300781 72.761719 24.109375 73.769531 24.671875 C 74.777344 25.230469 75.9375 25.515625 77.226562 25.515625 C 78.730469 25.515625 80.011719 25.214844 81.039062 24.617188 L 81.082031 24.59375 L 81.082031 21.679688 L 80.949219 21.777344 C 80.480469 22.117188 79.960938 22.390625 79.402344 22.585938 C 78.84375 22.78125 78.332031 22.882812 77.886719 22.882812 C 76.648438 22.882812 75.648438 22.492188 74.929688 21.722656 C 74.203125 20.949219 73.832031 19.867188 73.832031 18.503906 C 73.832031 17.132812 74.21875 16.019531 74.972656 15.199219 C 75.726562 14.382812 76.722656 13.96875 77.9375 13.96875 C 78.976562 13.96875 79.988281 14.324219 80.949219 15.023438 L 81.082031 15.121094 L 81.082031 12.046875 L 81.039062 12.023438 C 80.675781 11.820312 80.1875 11.652344 79.578125 11.523438 C 78.96875 11.398438 78.375 11.332031 77.808594 11.332031 Z M 68.378906 11.660156 L 65.21875 11.660156 L 65.21875 25.191406 L 68.378906 25.191406 Z M 66.832031 5.894531 C 66.308594 5.894531 65.855469 6.074219 65.484375 6.425781 C 65.109375 6.78125 64.921875 7.226562 64.921875 7.753906 C 64.921875 8.273438 65.105469 8.710938 65.480469 9.054688 C 65.84375 9.398438 66.300781 9.574219 66.832031 9.574219 C 67.359375 9.574219 67.816406 9.398438 68.191406 9.054688 C 68.566406 8.710938 68.753906 8.273438 68.753906 7.753906 C 68.753906 7.246094 68.570312 6.804688 68.207031 6.441406 C 67.839844 6.078125 67.378906 5.894531 66.832031 5.894531 Z M 58.941406 10.660156 L 58.941406 25.191406 L 62.167969 25.191406 L 62.167969 6.308594 L 57.703125 6.308594 L 52.027344 20.332031 L 46.515625 6.308594 L 41.871094 6.308594 L 41.871094 25.191406 L 44.902344 25.191406 L 44.902344 10.660156 L 45.007812 10.660156 L 50.824219 25.191406 L 53.109375 25.191406 L 58.839844 10.660156 Z M 58.941406 10.660156 " fill-opacity="1" fill-rule="nonzero"/><g clip-path="url(#id1)"><path fill="#f1511b" d="M 1.191406 0 L 16.066406 0 L 16.066406 14.972656 L 1.191406 14.972656 Z M 1.191406 0 " fill-opacity="1" fill-rule="nonzero"/></g><path fill="#80cc28" d="M 17.613281 0 L 32.488281 0 L 32.488281 14.972656 L 17.613281 14.972656 Z M 17.613281 0 " fill-opacity="1" fill-rule="nonzero"/><g clip-path="url(#id2)"><path fill="#00adef" d="M 1.191406 16.539062 L 16.066406 16.539062 L 16.066406 31.511719 L 1.191406 31.511719 Z M 1.191406 16.539062 " fill-opacity="1" fill-rule="nonzero"/></g><g clip-path="url(#id3)"><path fill="#fbbc09" d="M 17.613281 16.539062 L 32.488281 16.539062 L 32.488281 31.511719 L 17.613281 31.511719 Z M 17.613281 16.539062 " fill-opacity="1" fill-rule="nonzero"/></g></svg>